<?xml version="1.0" encoding="utf-8"?>
<!-- Generator: Adobe Illustrator 24.0.2, SVG Export Plug-In . SVG Version: 6.00 Build 0)  -->
<svg version="1.1" id="Layer_1" xmlns="http://www.w3.org/2000/svg" xmlns:xlink="http://www.w3.org/1999/xlink" x="0px" y="0px"
	 viewBox="0 0 37 31.9" style="enable-background:new 0 0 37 31.9;" xml:space="preserve">
<path d="M36,15H3.4l0,0v0h0L16.7,1.7c0.4-0.4,0.4-1,0-1.4c-0.4-0.4-1-0.4-1.4,0L0.4,15.2c0.1,0,0.1-0.1,0.2-0.1
	c-0.1,0-0.1,0.1-0.2,0.1l0,0c0,0,0,0,0,0c0,0,0,0,0,0c0,0,0,0,0,0C0.1,15.5,0,15.7,0,16c0,0.3,0.1,0.5,0.3,0.7c0,0,0,0,0,0
	c0,0,0,0,0,0c0,0,0,0,0.1,0.1l-0.1-0.1c0.1,0.1,0.1,0.1,0.2,0.1c-0.1,0-0.1-0.1-0.2-0.1l14.9,14.9c0,0,0,0,0,0c0.4,0.4,1,0.4,1.4,0
	c0.4-0.4,0.4-1,0-1.4L3.4,17h0v0l0,0H36c0.6,0,1-0.4,1-1S36.6,15,36,15z M0.8,16.9c0,0-0.1,0-0.1,0C0.7,16.9,0.7,16.9,0.8,16.9z"/>
</svg>
