<?xml version="1.0" encoding="utf-8"?>
<!-- Generator: Adobe Illustrator 24.0.2, SVG Export Plug-In . SVG Version: 6.00 Build 0)  -->
<svg version="1.1" id="All_glyphs" xmlns="http://www.w3.org/2000/svg" xmlns:xlink="http://www.w3.org/1999/xlink" x="0px" y="0px"
	 viewBox="0 0 70 85" style="enable-background:new 0 0 70 85;" xml:space="preserve">
<style type="text/css">
	.st0{fill:#FFFFFF;}
</style>
<g>
	<path class="st0" d="M64,30h-9v-7C55,8.5,48.3,0,35,0S15,8.5,15,23v7H5c-2.8,0-5,3.2-5,6v39c0,2.8,2.1,5.7,4.8,6.5l6,1.9
		c2.6,0.8,7,1.5,9.8,1.5h29c2.8,0,7.1-0.7,9.8-1.5l6-1.9c2.6-0.8,4.8-3.8,4.8-6.5V36C70,33.2,66.8,30,64,30z M25,21
		c0-7.2,4-11,10-11s10,3.8,10,11v9H25V21z"/>
</g>
</svg>
